<svg width="34" height="34" viewBox="0 0 34 34" fill="none" xmlns="http://www.w3.org/2000/svg">
<rect width="34" height="34" rx="3" fill="#280F4D"/>
<g clip-path="url(#clip0_7_13)">
<path d="M16.4963 5.10444C10.0286 5.38476 4.98099 10.9499 5.25794 17.5071C5.5349 24.0588 11.0333 29.1622 17.4982 28.8818C18.0196 28.8599 18.5246 28.8076 19.0161 28.706C24.2293 27.7991 28.2207 23.4267 28.7013 18.1089C28.7583 17.5785 28.7719 17.0399 28.7502 16.493C28.4732 9.93577 22.9749 4.82413 16.4963 5.10444ZM6.4445 17.4548C6.37934 15.9076 6.64815 14.4181 7.17762 13.0687L12.8009 26.8152C9.20319 25.2322 6.62099 21.6788 6.44179 17.4548H6.4445ZM18.8151 27.5407C18.3698 27.6149 17.9137 27.6671 17.4494 27.6864C16.4149 27.7303 15.4129 27.6204 14.4572 27.3758L15.4645 23.9213H15.47L17.2213 17.922L20.8488 26.785C20.876 26.8344 20.9086 26.8812 20.9357 26.9251C20.2596 27.2027 19.5537 27.4061 18.8178 27.5435H18.8151V27.5407ZM18.2476 11.9172C18.883 11.8595 19.4478 11.7661 19.4478 11.7661C20.0207 11.6781 19.9121 10.8289 19.3446 10.8894C19.3446 10.8894 17.6367 11.0983 16.537 11.1477C15.5025 11.1917 13.7485 11.1312 13.7485 11.1312C13.1837 11.1175 13.1484 12.0079 13.7241 12.0134C13.7241 12.0134 14.259 12.0574 14.8346 12.0656L16.6728 16.5589L14.6554 23.674L10.3192 12.2635C10.9599 12.2058 11.5274 12.1123 11.5274 12.1123C12.0868 12.0272 11.9917 11.1752 11.4243 11.2357C11.4243 11.2357 9.7218 11.4445 8.6167 11.494C8.41577 11.5022 8.18226 11.5077 7.93789 11.5105C9.70008 8.53145 12.8688 6.47854 16.5506 6.31915C19.3039 6.20098 21.8508 7.15735 23.803 8.80901H23.6618C22.6219 8.85298 21.9268 9.80111 21.9675 10.7877C22.0055 11.6671 22.5377 12.3872 23.1079 13.2446C23.5424 13.9399 24.0501 14.8358 24.1071 16.1549C24.1451 17.0701 23.9252 18.2353 23.45 19.6397L22.5432 23.2508L18.2531 11.9227H18.2476V11.9172ZM22.6979 26.0017L23.4338 23.5064L25.5245 16.4188C26.0648 14.8688 26.2114 13.6403 26.1653 12.5576C26.149 12.1673 26.1083 11.7963 26.0512 11.4583C26.9418 12.945 27.4849 14.6709 27.5636 16.5369C27.5854 17.0316 27.5745 17.5153 27.5338 17.9962C27.2215 21.3408 25.3779 24.2676 22.6979 26.0017Z" fill="#FF9D77"/>
</g>
<defs>
<clipPath id="clip0_7_13">
<rect width="24" height="24" fill="white" transform="translate(5 5)"/>
</clipPath>
</defs>
</svg>
